<?xml version="1.0" encoding="utf-8" ?>
<svg xmlns="http://www.w3.org/2000/svg" xmlns:xlink="http://www.w3.org/1999/xlink" width="3047" height="3040">

<!-- 
Логотип компании ООО "Строительно-Сервисная Компания". Единый официальный сайт - ssk86.ru 
Почта компании - info@ssk86.ru
Форматирование и комплексная редакция логотипа была выполнена системным администратором,
сотрудником ООО "Строительно-Сервисная Компания" - Мухаматдиновым Артуром Рафаилевичом
Авторские права © 2024 ООО "Строительно-Сервисная Компания", сокр. ООО "ССК"
-->

    <!-- Буква К - Справа -->
	<path fill="#0080A5" d="M1632.85 1513.91C1712.93 1435.7 1791.29 1355.57 1870.45 1276.41L2340.22 806.726L2481.49 948.15L1950.6 1479.15C1983.57 1472.03 2018.29 1468.62 2051.68 1463.57L2248.8 1433.77L2872.68 1339.32L3047 1513.61L3047 1515.11C3026.61 1520.36 3003.55 1522.02 2982.63 1525.17L2851.7 1544.92L2413.71 1611.3C2407.91 1679.64 2397.43 1748.38 2389.25 1816.54L2340.6 2221.44L2160.82 2041.58C2176.02 1908.44 2195.04 1775.47 2208.42 1642.15L1820.03 1700.87L1632.85 1513.91Z"/>

    <!-- Буква С - Слева -->
	<path fill="#0080A5" d="M706.972 806.869L954.523 1054.4L813.192 1195.79L707.095 1089.86L282.806 1514.08L707.07 1938.28L1131.41 1514.01L1025.22 1407.97L1166.68 1266.55C1249.12 1349.04 1330.71 1432.65 1414.24 1514.03L707.034 2221.12L215.526 1729.71L70.0703 1584.15C49.3936 1563.45 21.5796 1531.96 0 1514.79L0 1513.8L706.972 806.869Z"/>

    <!-- Буква С - Сверху -->
	<path fill="#0080A5" d="M1523.03 0.996392C1545.81 19.5342 1571.98 49.5505 1593.5 71.1087L1742.75 220.364L2230.58 708.052C2202.02 734.044 2175.33 762.985 2148.01 790.303L1982.89 955.415L1841.56 814.067L1947.59 707.943C1899.16 660.76 1851.87 612.263 1804.06 564.444L1523.18 283.73L1098.82 707.989C1147.39 754.133 1193.95 802.949 1241.36 850.321L1523.26 1132.09L1629.31 1026.09L1770.74 1167.48L1523.34 1415.2C1444.94 1338.8 1368.37 1260.26 1290.96 1182.85L816.029 708.005L1523.03 0.996392Z"/>

    <!-- Внешний Квадрат -->
	<path fill="#555354" d="M1523.07 1624.95C1604.03 1702.19 1681.75 1783.41 1760.89 1862.55L2230.57 2332.01C2202.9 2357.47 2176.88 2385.45 2150.28 2412.05L1995.07 2567.23L1523.56 3038.87C1505.53 3025.35 1477.54 2993.47 1459.93 2975.85L1316.5 2832.4L816.008 2331.98L1523.07 1624.95ZM1522.41 1908.43L1258.29 2172.71C1205.22 2225.76 1152.9 2279.89 1098.88 2331.96L1523.26 2756.05L1805.22 2474.19C1852.58 2426.82 1899.23 2378.31 1947.55 2331.95L1628.02 2012.39C1611.83 1996.2 1532.95 1913.55 1522.41 1908.43Z"/>

    <!-- Средний Квадрат -->
	<path fill="#555354" d="M1523.21 1978.36C1564.01 2015.86 1602.39 2057.4 1641.61 2096.63L1876.91 2331.89L1523.35 2685.4C1481.83 2646.26 1442.23 2604.64 1401.85 2564.28L1169.59 2331.97C1210.33 2294.07 1248.86 2252.84 1288.22 2213.46L1523.21 1978.36ZM1522.96 2120.14L1311.19 2331.9L1451.07 2471.64C1475.12 2495.68 1498.66 2520.43 1523.42 2543.73C1593.98 2473.23 1663.38 2400.91 1735.43 2331.97L1583.94 2180.68C1569.24 2165.95 1538.08 2130.74 1522.96 2120.14Z"/>

    <!-- Внутренний Квадрат -->
	<path fill="#555354" d="M1523.16 2190.57C1540.16 2205.05 1555.86 2222.83 1571.68 2238.67L1664.75 2331.89L1523.24 2473.42L1381.62 2331.92C1430.2 2286.69 1476.18 2237.53 1523.16 2190.57ZM1523.21 2247.18L1438.29 2331.98L1523.38 2416.86Q1565.46 2374.18 1608.02 2331.98L1523.21 2247.18Z"/>

</svg>